{
.appVersion = "1256";
copyright = "Copyright (C) 2019 Xiangdong Zeng";
date = "2019-08-21 03:57:35 +0000";
designer = "Xiangdong Zeng";
familyName = Aluminium;
featurePrefixes = (
{
code = "languagesystem DFLT dflt;\012";
name = Languagesystems;
}
);
features = (
{
code = "sub a by a.var;\012sub f by f.var;\012sub j by j.var;\012sub jdotless by jdotless.var;\012sub r by r.var;\012sub y by y.var;\012";
name = ss01;
}
);
fontMaster = (
{
alignmentZones = (
"{720, 8}",
"{700, 8}",
"{500, 8}",
"{0, -8}",
"{-240, -8}"
);
ascender = 720;
capHeight = 700;
descender = -240;
id = "B8B720EE-CA8B-4072-B286-8C23F1A5F625";
visible = 1;
xHeight = 500;
}
);
glyphs = (
{
glyphname = A;
lastChange = "2019-08-23 07:40:40 +0000";
layers = (
{
hints = (
{
origin = "{1, 3}";
type = Corner;
name = _corner.serif;
},
{
origin = "{1, 0}";
scale = "{-1, 1}";
type = Corner;
name = _corner.serif;
options = 1;
},
{
origin = "{0, 4}";
type = Corner;
name = _corner.serif;
},
{
origin = "{0, 0}";
scale = "{-1, 1}";
type = Corner;
name = _corner.serif;
options = 1;
}
);
layerId = "B8B720EE-CA8B-4072-B286-8C23F1A5F625";
paths = (
{
closed = 1;
nodes = (
"275 0 LINE",
"158 708 LINE",
"144 708 LINE",
"122 590 LINE",
"215 0 LINE"
);
},
{
closed = 1;
nodes = (
"30 0 LINE",
"158 708 LINE",
"137 708 LINE",
"9 0 LINE"
);
},
{
closed = 1;
nodes = (
"180 284 LINE",
"180 300 LINE",
"72 300 LINE",
"72 284 LINE"
);
}
);
width = 284;
}
);
unicode = 0041;
},
{
glyphname = B;
lastChange = "2019-08-23 09:35:07 +0000";
layers = (
{
components = (
{
name = _part.uppercase1;
transform = "{1, 0, 0, 1, 80, 278}";
},
{
name = _part.uppercase1;
transform = "{1, 0, 0, -1, 80, 128}";
},
{
name = _part.uppercase1;
transform = "{1, 0, 0, 1, 68, 572}";
},
{
name = _part.uppercase1;
transform = "{1, 0, 0, -1, 68, 518}";
}
);
hints = (
{
origin = "{0, 2}";
scale = "{-1, 1}";
type = Corner;
name = _corner.serif;
options = 1;
},
{
origin = "{0, 3}";
type = Corner;
name = _corner.serif;
}
);
layerId = "B8B720EE-CA8B-4072-B286-8C23F1A5F625";
paths = (
{
closed = 1;
nodes = (
"102 0 LINE",
"102 700 LINE",
"40 700 LINE",
"40 0 LINE"
);
},
{
closed = 1;
nodes = (
"248 108 LINE",
"248 298 LINE",
"186 298 LINE",
"186 108 LINE"
);
},
{
closed = 1;
nodes = (
"174 498 LINE",
"236 498 LINE",
"236 592 LINE",
"174 592 LINE"
);
}
);
width = 278;
}
);
leftMetricsKey = "=H";
rightMetricsKey = "=O";
unicode = 0042;
},
{
glyphname = C;
lastChange = "2019-08-23 09:35:08 +0000";
layers = (
{
components = (
{
name = _part.uppercase2;
transform = "{1, 0, 0, 1, 30, 580}";
},
{
name = _part.uppercase2;
transform = "{1, 0, 0, -1, 30, 120}";
}
);
hints = (
{
origin = "{0, 3}";
type = Corner;
name = _corner.serif;
},
{
origin = "{2, 0}";
scale = "{-1, 1}";
type = Corner;
name = _corner.serif;
options = 1;
}
);
layerId = "B8B720EE-CA8B-4072-B286-8C23F1A5F625";
paths = (
{
closed = 1;
nodes = (
"176 180 LINE",
"176 100 LINE",
"238 100 LINE",
"238 180 LINE"
);
},
{
closed = 1;
nodes = (
"92 100 LINE",
"92 600 LINE",
"30 600 LINE",
"30 100 LINE"
);
},
{
closed = 1;
nodes = (
"238 520 LINE",
"238 600 LINE",
"176 600 LINE",
"176 520 LINE"
);
}
);
width = 258;
}
);
leftMetricsKey = "=O";
unicode = 0043;
},
{
glyphname = D;
lastChange = "2019-08-23 09:35:10 +0000";
layers = (
{
components = (
{
name = _part.uppercase1;
transform = "{1, 0, 0, 1, 80, 572}";
},
{
name = _part.uppercase1;
transform = "{1, 0, 0, -1, 80, 128}";
}
);
hints = (
{
origin = "{0, 3}";
type = Corner;
name = _corner.serif;
},
{
origin = "{0, 2}";
scale = "{-1, 1}";
type = Corner;
name = _corner.serif;
options = 1;
}
);
layerId = "B8B720EE-CA8B-4072-B286-8C23F1A5F625";
paths = (
{
closed = 1;
nodes = (
"102 0 LINE",
"102 700 LINE",
"40 700 LINE",
"40 0 LINE"
);
},
{
closed = 1;
nodes = (
"248 108 LINE",
"248 592 LINE",
"186 592 LINE",
"186 108 LINE"
);
}
);
width = 278;
}
);
leftMetricsKey = "=H";
rightMetricsKey = "=O";
unicode = 0044;
},
{
glyphname = E;
lastChange = "2019-08-22 09:43:55 +0000";
layers = (
{
hints = (
{
origin = "{0, 14}";
scale = "{-1, 1}";
type = Corner;
name = _corner.serif;
options = 1;
},
{
origin = "{0, 15}";
type = Corner;
name = _corner.serif;
},
{
origin = "{0, 1}";
type = Corner;
name = _corner.serif;
}
);
layerId = "B8B720EE-CA8B-4072-B286-8C23F1A5F625";
paths = (
{
closed = 1;
nodes = (
"248 0 LINE",
"248 180 LINE",
"186 180 LINE",
"186 16 LINE",
"102 16 LINE",
"102 390 LINE",
"242 390 LINE",
"242 406 LINE",
"102 406 LINE",
"102 684 LINE",
"186 684 LINE",
"186 640 LINE",
"248 640 LINE",
"248 700 LINE",
"40 700 LINE",
"40 0 LINE"
);
}
);
width = 268;
}
);
leftMetricsKey = "=H";
rightMetricsKey = "=C";
unicode = 0045;
},
{
glyphname = F;
lastChange = "2019-08-22 09:44:06 +0000";
layers = (
{
hints = (
{
origin = "{0, 10}";
scale = "{-1, 1}";
type = Corner;
name = _corner.serif;
options = 1;
},
{
origin = "{0, 11}";
type = Corner;
name = _corner.serif;
},
{
origin = "{0, 0}";
scale = "{-1, 1}";
type = Corner;
name = _corner.serif;
options = 1;
}
);
layerId = "B8B720EE-CA8B-4072-B286-8C23F1A5F625";
paths = (
{
closed = 1;
nodes = (
"102 0 LINE",
"102 372 LINE",
"242 372 LINE",
"242 388 LINE",
"102 388 LINE",
"102 684 LINE",
"186 684 LINE",
"186 640 LINE",
"248 640 LINE",
"248 700 LINE",
"40 700 LINE",
"40 0 LINE"
);
}
);
width = 218;
}
);
leftMetricsKey = "=H";
unicode = 0046;
},
{
glyphname = G;
lastChange = "2019-08-23 09:35:13 +0000";
layers = (
{
layerId = "B8B720EE-CA8B-4072-B286-8C23F1A5F625";
paths = (
{
closed = 1;
nodes = (
"136 280 LINE",
"136 264 LINE",
"176 264 LINE",
"176 0 LINE",
"238 0 LINE",
"238 280 LINE"
);
},
{
closed = 1;
nodes = (
"92 100 LINE",
"92 600 LINE",
"30 600 LINE",
"30 100 LINE"
);
},
{
closed = 1;
nodes = (
"30 79 LINE SMOOTH",
"30 45 OFFCURVE",
"32 -8 OFFCURVE",
"108 -8 CURVE SMOOTH",
"185 -8 OFFCURVE",
"185 56 OFFCURVE",
"185 112 CURVE",
"176 112 LINE",
"176 60 OFFCURVE",
"167 21 OFFCURVE",
"131 21 CURVE SMOOTH",
"94 21 OFFCURVE",
"92 58 OFFCURVE",
"92 87 CURVE SMOOTH",
"92 140 LINE",
"30 140 LINE"
);
},
{
closed = 1;
nodes = (
"228 520 LINE",
"228 600 LINE",
"166 600 LINE",
"166 520 LINE"
);
},
{
closed = 1;
nodes = (
"92 580 LINE",
"92 609 LINE SMOOTH",
"92 646 OFFCURVE",
"92 692 OFFCURVE",
"129 692 CURVE SMOOTH",
"166 692 OFFCURVE",
"166 646 OFFCURVE",
"166 609 CURVE SMOOTH",
"166 580 LINE",
"228 580 LINE",
"228 600 LINE SMOOTH",
"228 645 OFFCURVE",
"228 708 OFFCURVE",
"129 708 CURVE SMOOTH",
"30 708 OFFCURVE",
"30 645 OFFCURVE",
"30 600 CURVE SMOOTH",
"30 580 LINE"
);
}
);
width = 268;
}
);
leftMetricsKey = "=O";
rightMetricsKey = "=D";
unicode = 0047;
},
{
glyphname = H;
lastChange = "2019-08-22 09:43:17 +0000";
layers = (
{
hints = (
{
origin = "{0, 8}";
type = Corner;
name = _corner.serif;
},
{
origin = "{0, 9}";
scale = "{-1, 1}";
type = Corner;
name = _corner.serif;
options = 1;
},
{
origin = "{0, 10}";
type = Corner;
name = _corner.serif;
},
{
origin = "{0, 11}";
scale = "{-1, 1}";
type = Corner;
name = _corner.serif;
options = 1;
},
{
origin = "{0, 2}";
type = Corner;
name = _corner.serif;
},
{
origin = "{0, 3}";
scale = "{-1, 1}";
type = Corner;
name = _corner.serif;
options = 1;
},
{
origin = "{0, 4}";
type = Corner;
name = _corner.serif;
},
{
origin = "{0, 5}";
scale = "{-1, 1}";
type = Corner;
name = _corner.serif;
options = 1;
}
);
layerId = "B8B720EE-CA8B-4072-B286-8C23F1A5F625";
paths = (
{
closed = 1;
nodes = (
"186 406 LINE",
"102 406 LINE",
"102 700 LINE",
"40 700 LINE",
"40 0 LINE",
"102 0 LINE",
"102 390 LINE",
"186 390 LINE",
"186 0 LINE",
"248 0 LINE",
"248 700 LINE",
"186 700 LINE"
);
}
);
width = 288;
}
);
leftMetricsKey = "=n";
rightMetricsKey = "=n";
unicode = 0048;
},
{
glyphname = I;
lastChange = "2019-08-22 09:43:04 +0000";
layers = (
{
hints = (
{
origin = "{0, 0}";
type = Corner;
name = _corner.serif;
},
{
origin = "{0, 1}";
scale = "{-1, 1}";
type = Corner;
name = _corner.serif;
options = 1;
},
{
origin = "{0, 2}";
type = Corner;
name = _corner.serif;
},
{
origin = "{0, 3}";
scale = "{-1, 1}";
type = Corner;
name = _corner.serif;
options = 1;
}
);
layerId = "B8B720EE-CA8B-4072-B286-8C23F1A5F625";
paths = (
{
closed = 1;
nodes = (
"40 0 LINE",
"102 0 LINE",
"102 700 LINE",
"40 700 LINE"
);
}
);
width = 142;
}
);
leftMetricsKey = "=H";
rightMetricsKey = "=H";
unicode = 0049;
},
{
glyphname = J;
lastChange = "2019-08-22 15:19:59 +0000";
layers = (
{
components = (
{
name = _part.uppercase2;
transform = "{1, 0, 0, -1, 20, 120}";
}
);
hints = (
{
origin = "{0, 2}";
type = Corner;
name = _corner.serif;
},
{
origin = "{0, 3}";
scale = "{-1, 1}";
type = Corner;
name = _corner.serif;
options = 1;
},
{
origin = "{1, 3}";
scale = "{-1, 1}";
type = Corner;
name = _corner.serif;
options = 1;
},
{
origin = "{1, 2}";
type = Corner;
name = _corner.serif;
}
);
layerId = "B8B720EE-CA8B-4072-B286-8C23F1A5F625";
paths = (
{
closed = 1;
nodes = (
"166 100 LINE",
"228 100 LINE",
"228 700 LINE",
"166 700 LINE"
);
},
{
closed = 1;
nodes = (
"20 100 LINE",
"82 100 LINE",
"82 180 LINE",
"20 180 LINE"
);
}
);
width = 268;
}
);
leftMetricsKey = "=|C";
rightMetricsKey = "=U";
unicode = 004A;
},
{
glyphname = K;
lastChange = "2019-08-22 15:37:51 +0000";
layers = (
{
hints = (
{
origin = "{1, 1}";
type = Corner;
name = _corner.serif;
},
{
origin = "{1, 2}";
scale = "{-1, 1}";
type = Corner;
name = _corner.serif;
options = 1;
},
{
origin = "{1, 3}";
type = Corner;
name = _corner.serif;
},
{
origin = "{1, 0}";
scale = "{-1, 1}";
type = Corner;
name = _corner.serif;
options = 1;
},
{
origin = "{0, 3}";
type = Corner;
name = _corner.serif;
},
{
origin = "{0, 0}";
scale = "{-1, 1}";
type = Corner;
name = _corner.serif;
options = 1;
},
{
origin = "{2, 0}";
type = Corner;
name = _corner.serif;
},
{
origin = "{2, 1}";
scale = "{-1, 1}";
type = Corner;
name = _corner.serif;
options = 1;
}
);
layerId = "B8B720EE-CA8B-4072-B286-8C23F1A5F625";
paths = (
{
closed = 1;
nodes = (
"289 0 LINE",
"145 496 LINE",
"110 412 LINE",
"230 0 LINE"
);
},
{
closed = 1;
nodes = (
"102 0 LINE",
"102 700 LINE",
"40 700 LINE",
"40 0 LINE"
);
},
{
closed = 1;
nodes = (
"240 700 LINE",
"219 700 LINE",
"78 361 LINE",
"78 313 LINE"
);
}
);
width = 297;
}
);
leftMetricsKey = "=H";
unicode = 004B;
},
{
glyphname = L;
lastChange = "2019-08-22 09:45:13 +0000";
layers = (
{
hints = (
{
origin = "{0, 6}";
type = Corner;
name = _corner.serif;
},
{
origin = "{0, 4}";
type = Corner;
name = _corner.serif;
},
{
origin = "{0, 5}";
scale = "{-1, 1}";
type = Corner;
name = _corner.serif;
options = 1;
},
{
origin = "{0, 0}";
type = Corner;
name = _corner.serif;
}
);
layerId = "B8B720EE-CA8B-4072-B286-8C23F1A5F625";
paths = (
{
closed = 1;
nodes = (
"248 180 LINE",
"186 180 LINE",
"186 16 LINE",
"102 16 LINE",
"102 700 LINE",
"40 700 LINE",
"40 0 LINE",
"248 0 LINE"
);
}
);
width = 268;
}
);
leftMetricsKey = "=I";
rightMetricsKey = "=C";
unicode = 004C;
},
{
glyphname = M;
lastChange = "2019-08-22 10:30:08 +0000";
layers = (
{
hints = (
{
origin = "{0, 0}";
scale = "{1, -1}";
type = Corner;
name = _corner.serif;
options = 1;
},
{
origin = "{0, 10}";
scale = "{-1, 1}";
type = Corner;
name = _corner.serif;
options = 1;
},
{
origin = "{0, 11}";
scale = "{-1, -1}";
type = Corner;
name = _corner.serif;
},
{
origin = "{1, 1}";
type = Corner;
name = _corner.serif;
},
{
origin = "{1, 2}";
scale = "{-1, 1}";
type = Corner;
name = _corner.serif;
options = 1;
},
{
origin = "{1, 3}";
type = Corner;
name = _corner.serif;
},
{
origin = "{0, 9}";
type = Corner;
name = _corner.serif;
}
);
layerId = "B8B720EE-CA8B-4072-B286-8C23F1A5F625";
paths = (
{
closed = 1;
nodes = (
"64 0 LINE",
"64 518 LINE",
"48 518 LINE",
"182 0 LINE",
"204 0 LINE",
"354 700 LINE",
"330 700 LINE",
"204 113 LINE",
"214 113 LINE",
"62 700 LINE",
"40 700 LINE",
"40 0 LINE"
);
},
{
closed = 1;
nodes = (
"320 590 LINE",
"320 0 LINE",
"382 0 LINE",
"382 700 LINE",
"344 700 LINE"
);
}
);
width = 422;
}
);
leftMetricsKey = "=H";
rightMetricsKey = "=H";
unicode = 004D;
},
{
glyphname = N;
lastChange = "2019-08-22 10:29:31 +0000";
layers = (
{
hints = (
{
origin = "{0, 5}";
scale = "{-1, -1}";
type = Corner;
name = _corner.serif;
},
{
origin = "{0, 6}";
scale = "{1, -1}";
type = Corner;
name = _corner.serif;
options = 1;
},
{
origin = "{0, 10}";
scale = "{-1, 1}";
type = Corner;
name = _corner.serif;
options = 1;
},
{
origin = "{0, 11}";
scale = "{-1, -1}";
type = Corner;
name = _corner.serif;
},
{
origin = "{0, 0}";
scale = "{1, -1}";
type = Corner;
name = _corner.serif;
options = 1;
},
{
origin = "{0, 9}";
type = Corner;
name = _corner.serif;
}
);
layerId = "B8B720EE-CA8B-4072-B286-8C23F1A5F625";
paths = (
{
closed = 1;
nodes = (
"66 0 LINE",
"66 555 LINE",
"48 555 LINE",
"226 0 LINE",
"248 0 LINE",
"248 700 LINE",
"222 700 LINE",
"222 145 LINE",
"240 145 LINE",
"62 700 LINE",
"40 700 LINE",
"40 0 LINE"
);
}
);
width = 288;
}
);
leftMetricsKey = "=H";
rightMetricsKey = "=H";
unicode = 004E;
},
{
glyphname = O;
lastChange = "2019-08-23 08:24:50 +0000";
layers = (
{
components = (
{
name = _part.uppercase2;
transform = "{1, 0, 0, -1, 30, 120}";
},
{
name = _part.uppercase2;
transform = "{1, 0, 0, 1, 30, 580}";
}
);
layerId = "B8B720EE-CA8B-4072-B286-8C23F1A5F625";
paths = (
{
closed = 1;
nodes = (
"238 100 LINE",
"238 600 LINE",
"176 600 LINE",
"176 100 LINE"
);
},
{
closed = 1;
nodes = (
"92 100 LINE",
"92 600 LINE",
"30 600 LINE",
"30 100 LINE"
);
}
);
width = 268;
}
);
leftMetricsKey = "=o";
rightMetricsKey = "=o";
unicode = 004F;
},
{
glyphname = P;
lastChange = "2019-08-22 09:45:34 +0000";
layers = (
{
components = (
{
name = _part.uppercase1;
transform = "{1, 0, 0, 1, 80, 572}";
},
{
name = _part.uppercase1;
transform = "{1, 0, 0, -1, 80, 518}";
}
);
hints = (
{
origin = "{0, 2}";
scale = "{-1, 1}";
type = Corner;
name = _corner.serif;
options = 1;
},
{
origin = "{0, 3}";
type = Corner;
name = _corner.serif;
},
{
origin = "{0, 0}";
scale = "{-1, 1}";
type = Corner;
name = _corner.serif;
options = 1;
}
);
layerId = "B8B720EE-CA8B-4072-B286-8C23F1A5F625";
paths = (
{
closed = 1;
nodes = (
"102 0 LINE",
"102 700 LINE",
"40 700 LINE",
"40 0 LINE"
);
},
{
closed = 1;
nodes = (
"186 498 LINE",
"248 498 LINE",
"248 592 LINE",
"186 592 LINE"
);
}
);
width = 238;
}
);
leftMetricsKey = "=H";
unicode = 0050;
},
{
glyphname = Q;
lastChange = "2019-08-22 10:50:18 +0000";
layers = (
{
components = (
{
name = O;
}
);
layerId = "B8B720EE-CA8B-4072-B286-8C23F1A5F625";
paths = (
{
closed = 1;
nodes = (
"255 -114 LINE",
"173 -114 OFFCURVE",
"168 -43 OFFCURVE",
"168 0 CURVE",
"120 0 LINE",
"120 -66 OFFCURVE",
"120 -128 OFFCURVE",
"255 -128 CURVE"
);
}
);
width = 288;
}
);
unicode = 0051;
},
{
glyphname = R;
lastChange = "2019-08-22 15:15:58 +0000";
layers = (
{
components = (
{
name = _part.uppercase1;
transform = "{1, 0, 0, 1, 80, 278}";
},
{
name = _part.uppercase1;
transform = "{1, 0, 0, 1, 80, 572}";
},
{
name = _part.uppercase1;
transform = "{1, 0, 0, -1, 80, 518}";
}
);
hints = (
{
origin = "{0, 2}";
scale = "{-1, 1}";
type = Corner;
name = _corner.serif;
options = 1;
},
{
origin = "{0, 3}";
type = Corner;
name = _corner.serif;
},
{
origin = "{0, 0}";
scale = "{-1, 1}";
type = Corner;
name = _corner.serif;
options = 1;
}
);
layerId = "B8B720EE-CA8B-4072-B286-8C23F1A5F625";
paths = (
{
closed = 1;
nodes = (
"102 0 LINE",
"102 700 LINE",
"40 700 LINE",
"40 0 LINE"
);
},
{
closed = 1;
nodes = (
"248 108 LINE",
"248 298 LINE",
"186 298 LINE",
"186 108 LINE"
);
},
{
closed = 1;
nodes = (
"186 498 LINE",
"248 498 LINE",
"248 592 LINE",
"186 592 LINE"
);
},
{
closed = 1;
nodes = (
"186 128 LINE",
"186 94 LINE SMOOTH",
"186 59 OFFCURVE",
"186 0 OFFCURVE",
"289 0 CURVE SMOOTH",
"304 0 LINE",
"304 16 LINE",
"296 16 LINE SMOOTH",
"248 16 OFFCURVE",
"248 55 OFFCURVE",
"248 88 CURVE SMOOTH",
"248 128 LINE"
);
}
);
width = 294;
}
);
leftMetricsKey = "=H";
unicode = 0052;
},
{
glyphname = S;
lastChange = "2019-08-22 11:03:48 +0000";
layers = (
{
components = (
{
name = _part.uppercase2;
transform = "{1, 0, 0, 1, 30, 580}";
},
{
name = _part.uppercase2;
transform = "{1, 0, 0, -1, 30, 120}";
}
);
hints = (
{
origin = "{0, 3}";
scale = "{-1, 1}";
type = Corner;
name = _corner.serif;
options = 1;
},
{
origin = "{1, 0}";
scale = "{-1, 1}";
type = Corner;
name = _corner.serif;
options = 1;
}
);
layerId = "B8B720EE-CA8B-4072-B286-8C23F1A5F625";
paths = (
{
closed = 1;
nodes = (
"30 100 LINE",
"92 100 LINE",
"92 180 LINE",
"30 180 LINE"
);
},
{
closed = 1;
nodes = (
"238 520 LINE",
"238 600 LINE",
"176 600 LINE",
"176 520 LINE"
);
},
{
closed = 1;
nodes = (
"238 100 LINE",
"238 160 LINE SMOOTH",
"238 281 OFFCURVE",
"92 430 OFFCURVE",
"92 554 CURVE SMOOTH",
"92 600 LINE",
"30 600 LINE",
"30 540 LINE SMOOTH",
"30 419 OFFCURVE",
"176 270 OFFCURVE",
"176 146 CURVE SMOOTH",
"176 100 LINE"
);
}
);
width = 268;
}
);
unicode = 0053;
},
{
glyphname = T;
lastChange = "2019-08-22 09:45:41 +0000";
layers = (
{
hints = (
{
origin = "{0, 4}";
type = Corner;
name = _corner.serif;
},
{
origin = "{0, 5}";
scale = "{-1, 1}";
type = Corner;
name = _corner.serif;
options = 1;
}
);
layerId = "B8B720EE-CA8B-4072-B286-8C23F1A5F625";
paths = (
{
closed = 1;
nodes = (
"-10 640 LINE",
"52 640 LINE",
"52 684 LINE",
"136 684 LINE",
"136 0 LINE",
"198 0 LINE",
"198 684 LINE",
"282 684 LINE",
"282 640 LINE",
"344 640 LINE",
"344 700 LINE",
"-10 700 LINE"
);
}
);
width = 334;
}
);
rightMetricsKey = "=|";
unicode = 0054;
},
{
glyphname = U;
lastChange = "2019-08-22 09:45:45 +0000";
layers = (
{
components = (
{
name = _part.uppercase2;
transform = "{1, 0, 0, -1, 40, 120}";
}
);
hints = (
{
origin = "{0, 1}";
type = Corner;
name = _corner.serif;
},
{
origin = "{0, 2}";
scale = "{-1, 1}";
type = Corner;
name = _corner.serif;
options = 1;
},
{
origin = "{1, 1}";
type = Corner;
name = _corner.serif;
},
{
origin = "{1, 2}";
scale = "{-1, 1}";
type = Corner;
name = _corner.serif;
options = 1;
}
);
layerId = "B8B720EE-CA8B-4072-B286-8C23F1A5F625";
paths = (
{
closed = 1;
nodes = (
"248 100 LINE",
"248 700 LINE",
"186 700 LINE",
"186 100 LINE"
);
},
{
closed = 1;
nodes = (
"102 100 LINE",
"102 700 LINE",
"40 700 LINE",
"40 100 LINE"
);
}
);
width = 288;
}
);
leftMetricsKey = "=H";
rightMetricsKey = "=H";
unicode = 0055;
},
{
glyphname = V;
lastChange = "2019-08-22 11:17:12 +0000";
layers = (
{
hints = (
{
origin = "{0, 0}";
type = Corner;
name = _corner.serif;
},
{
origin = "{0, 1}";
scale = "{-1, 1}";
type = Corner;
name = _corner.serif;
options = 1;
},
{
origin = "{0, 4}";
scale = "{-1, -1}";
type = Corner;
name = _corner.serif;
},
{
origin = "{0, 5}";
scale = "{1, -1}";
type = Corner;
name = _corner.serif;
options = 1;
}
);
layerId = "B8B720EE-CA8B-4072-B286-8C23F1A5F625";
paths = (
{
closed = 1;
nodes = (
"245 700 LINE",
"225 700 LINE",
"135 163 LINE",
"145 163 LINE",
"61 700 LINE",
"-1 700 LINE",
"117 -8 LINE",
"127 -8 LINE"
);
}
);
width = 244;
}
);
rightMetricsKey = "=|";
unicode = 0056;
},
{
glyphname = X;
lastChange = "2019-08-22 15:55:28 +0000";
layers = (
{
hints = (
{
origin = "{0, 0}";
type = Corner;
name = _corner.serif;
},
{
origin = "{0, 1}";
scale = "{-1, 1}";
type = Corner;
name = _corner.serif;
options = 1;
},
{
origin = "{0, 2}";
type = Corner;
name = _corner.serif;
},
{
origin = "{0, 3}";
scale = "{-1, 1}";
type = Corner;
name = _corner.serif;
options = 1;
},
{
origin = "{1, 2}";
scale = "{-1, -1}";
type = Corner;
name = _corner.serif;
},
{
origin = "{1, 3}";
scale = "{1, -1}";
type = Corner;
name = _corner.serif;
options = 1;
},
{
origin = "{1, 6}";
scale = "{-1, -1}";
type = Corner;
name = _corner.serif;
},
{
origin = "{1, 7}";
scale = "{1, -1}";
type = Corner;
name = _corner.serif;
options = 1;
}
);
layerId = "B8B720EE-CA8B-4072-B286-8C23F1A5F625";
paths = (
{
closed = 1;
nodes = (
"218 0 LINE",
"276 0 LINE",
"80 700 LINE",
"22 700 LINE"
);
},
{
closed = 1;
nodes = (
"139 388 LINE",
"130 388 LINE",
"8 0 LINE",
"31 0 LINE",
"143 360 LINE",
"152 360 LINE",
"263 700 LINE",
"240 700 LINE"
);
}
);
width = 284;
}
);
unicode = 0058;
},
{
glyphname = Y;
lastChange = "2019-08-22 16:06:10 +0000";
layers = (
{
hints = (
{
origin = "{0, 1}";
scale = "{1, -1}";
type = Corner;
name = _corner.serif;
options = 1;
},
{
origin = "{0, 0}";
scale = "{-1, -1}";
type = Corner;
name = _corner.serif;
},
{
origin = "{0, 3}";
type = Corner;
name = _corner.serif;
},
{
origin = "{0, 4}";
scale = "{-1, 1}";
type = Corner;
name = _corner.serif;
options = 1;
},
{
origin = "{0, 7}";
scale = "{-1, -1}";
type = Corner;
name = _corner.serif;
},
{
origin = "{0, 8}";
scale = "{1, -1}";
type = Corner;
name = _corner.serif;
options = 1;
}
);
layerId = "B8B720EE-CA8B-4072-B286-8C23F1A5F625";
paths = (
{
closed = 1;
nodes = (
"201 0 LINE",
"139 0 LINE",
"139 375 LINE",
"38 700 LINE",
"96 700 LINE",
"194 385 LINE",
"182 385 LINE",
"260 700 LINE",
"282 700 LINE",
"201 375 LINE"
);
}
);
width = 320;
}
);
unicode = 0059;
},
{
glyphname = Z;
lastChange = "2019-08-22 15:59:08 +0000";
layers = (
{
hints = (
{
origin = "{0, 8}";
type = Corner;
name = _corner.serif;
}
);
layerId = "B8B720EE-CA8B-4072-B286-8C23F1A5F625";
paths = (
{
closed = 1;
nodes = (
"224 700 LINE",
"10 700 LINE",
"10 640 LINE",
"72 640 LINE",
"72 684 LINE",
"168 684 LINE",
"0 0 LINE",
"234 0 LINE",
"234 180 LINE",
"172 180 LINE",
"172 16 LINE",
"72 16 LINE"
);
}
);
width = 264;
}
);
unicode = 005A;
},
{
glyphname = a;
lastChange = "2019-08-23 08:21:40 +0000";
layers = (
{
components = (
{
name = _part.mid;
piece = {
height = 60.03975;
};
transform = "{1, 0, 0, 1, 24, 0}";
}
);
hints = (
{
origin = "{0, 0}";
scale = "{1, -1}";
type = Corner;
name = _corner.serif;
options = 1;
}
);
layerId = "B8B720EE-CA8B-4072-B286-8C23F1A5F625";
paths = (
{
closed = 1;
nodes = (
"224 0 LINE",
"224 360 LINE",
"164 360 LINE",
"164 0 LINE"
);
},
{
closed = 1;
nodes = (
"224 340 LINE",
"224 380 LINE SMOOTH",
"224 413 OFFCURVE",
"224 508 OFFCURVE",
"127 508 CURVE SMOOTH",
"71 508 OFFCURVE",
"34 475 OFFCURVE",
"34 429 CURVE SMOOTH",
"34 400 OFFCURVE",
"48 386 OFFCURVE",
"68 386 CURVE",
"87 386 OFFCURVE",
"100 399 OFFCURVE",
"100 418 CURVE SMOOTH",
"100 435 OFFCURVE",
"89 448 OFFCURVE",
"73 448 CURVE SMOOTH",
"58 448 OFFCURVE",
"46 436 OFFCURVE",
"46 420 CURVE",
"50 420 LINE",
"46 464 OFFCURVE",
"76 492 OFFCURVE",
"113 492 CURVE SMOOTH",
"164 492 OFFCURVE",
"164 439 OFFCURVE",
"164 390 CURVE SMOOTH",
"164 340 LINE"
);
}
);
width = 264;
}
);
leftMetricsKey = "=|c";
rightMetricsKey = "=n";
unicode = 0061;
},
{
glyphname = b;
lastChange = "2019-08-23 08:00:47 +0000";
layers = (
{
components = (
{
name = _part.mid;
transform = "{-1, 0, 0, 1, 240, 0}";
}
);
hints = (
{
origin = "{0, 2}";
scale = "{1, -1}";
type = Corner;
name = _corner.serif;
options = 1;
},
{
origin = "{0, 3}";
type = Corner;
name = _corner.serif;
}
);
layerId = "B8B720EE-CA8B-4072-B286-8C23F1A5F625";
paths = (
{
closed = 1;
nodes = (
"100 0 LINE",
"100 720 LINE",
"40 720 LINE",
"40 0 LINE"
);
}
);
width = 270;
}
);
leftMetricsKey = "=h";
rightMetricsKey = "=o";
unicode = 0062;
},
{
glyphname = c;
lastChange = "2019-08-23 08:21:37 +0000";
layers = (
{
components = (
{
name = _part.lowercase2;
transform = "{1, 0, 0, -1, 30, 160}";
},
{
name = _part.lowercase2;
transform = "{1, 0, 0, 1, 30, 340}";
}
);
layerId = "B8B720EE-CA8B-4072-B286-8C23F1A5F625";
paths = (
{
closed = 1;
nodes = (
"90 140 LINE",
"90 360 LINE",
"30 360 LINE",
"30 140 LINE"
);
}
);
width = 254;
}
);
leftMetricsKey = "=o";
unicode = 0063;
},
{
glyphname = d;
lastChange = "2019-08-23 08:00:49 +0000";
layers = (
{
components = (
{
name = _part.mid;
transform = "{1, 0, 0, 1, 30, 0}";
}
);
hints = (
{
origin = "{0, 0}";
scale = "{1, -1}";
type = Corner;
name = _corner.serif;
options = 1;
},
{
origin = "{0, 2}";
scale = "{1, -1}";
type = Corner;
name = _corner.serif;
options = 1;
}
);
layerId = "B8B720EE-CA8B-4072-B286-8C23F1A5F625";
paths = (
{
closed = 1;
nodes = (
"230 0 LINE",
"230 720 LINE",
"170 720 LINE",
"170 0 LINE"
);
}
);
width = 270;
}
);
leftMetricsKey = "=o";
rightMetricsKey = "=l";
unicode = 0064;
},
{
glyphname = e;
lastChange = "2019-08-23 08:01:27 +0000";
layers = (
{
components = (
{
name = _part.lowercase2;
transform = "{1, 0, 0, -1, 30, 160}";
},
{
name = _part.lowercase2;
transform = "{1, 0, 0, 1, 30, 340}";
}
);
layerId = "B8B720EE-CA8B-4072-B286-8C23F1A5F625";
paths = (
{
closed = 1;
nodes = (
"90 140 LINE",
"90 360 LINE",
"30 360 LINE",
"30 140 LINE"
);
},
{
closed = 1;
nodes = (
"230 310 LINE",
"230 360 LINE",
"170 360 LINE",
"170 326 LINE",
"80 326 LINE",
"80 310 LINE"
);
}
);
width = 260;
}
);
leftMetricsKey = "=o";
unicode = 0065;
},
{
glyphname = f;
lastChange = "2019-08-23 08:51:55 +0000";
layers = (
{
hints = (
{
origin = "{0, 3}";
type = Corner;
name = _corner.serif;
},
{
origin = "{0, 0}";
scale = "{-1, 1}";
type = Corner;
name = _corner.serif;
options = 1;
}
);
layerId = "B8B720EE-CA8B-4072-B286-8C23F1A5F625";
paths = (
{
closed = 1;
nodes = (
"100 0 LINE",
"100 580 LINE",
"40 580 LINE",
"40 0 LINE"
);
},
{
closed = 1;
nodes = (
"210 484 LINE",
"210 500 LINE",
"-10 500 LINE",
"-10 484 LINE"
);
},
{
closed = 1;
nodes = (
"100 560 LINE",
"100 600 LINE SMOOTH",
"100 655 OFFCURVE",
"124 712 OFFCURVE",
"173 712 CURVE SMOOTH",
"210 712 OFFCURVE",
"240 679 OFFCURVE",
"240 640 CURVE",
"246 640 LINE",
"246 654 OFFCURVE",
"239 671 OFFCURVE",
"220 671 CURVE SMOOTH",
"203 671 OFFCURVE",
"192 659 OFFCURVE",
"192 639 CURVE SMOOTH",
"192 618 OFFCURVE",
"204 604 OFFCURVE",
"224 604 CURVE",
"242 604 OFFCURVE",
"256 616 OFFCURVE",
"256 643 CURVE SMOOTH",
"256 682 OFFCURVE",
"227 728 OFFCURVE",
"159 728 CURVE SMOOTH",
"64 728 OFFCURVE",
"40 635 OFFCURVE",
"40 590 CURVE SMOOTH",
"40 560 LINE"
);
}
);
width = 160;
}
);
leftMetricsKey = "=t";
unicode = 0066;
},
{
glyphname = g;
lastChange = "2019-08-23 08:52:20 +0000";
layers = (
{
components = (
{
name = _part.lowercase2;
transform = "{1, 0, 0, -1, 24, 360}";
},
{
name = _part.lowercase2;
transform = "{1, 0, 0, 1, 24, 340}";
},
{
name = _part.lowercase2;
transform = "{1, 0, 0, -1, 24, -80}";
}
);
layerId = "B8B720EE-CA8B-4072-B286-8C23F1A5F625";
paths = (
{
closed = 1;
nodes = (
"224 -100 LINE",
"224 46 LINE SMOOTH",
"224 94 OFFCURVE",
"224 142 OFFCURVE",
"131 142 CURVE SMOOTH",
"82 142 OFFCURVE",
"58 142 OFFCURVE",
"58 164 CURVE SMOOTH",
"58 173 OFFCURVE",
"62 183 OFFCURVE",
"82 207 CURVE",
"74 217 LINE",
"30 185 OFFCURVE",
"24 165 OFFCURVE",
"24 148 CURVE SMOOTH",
"24 108 OFFCURVE",
"62 81 OFFCURVE",
"116 81 CURVE SMOOTH",
"164 81 OFFCURVE",
"164 59 OFFCURVE",
"164 1 CURVE SMOOTH",
"164 -100 LINE"
);
},
{
closed = 1;
nodes = (
"84 -100 LINE",
"84 20 LINE",
"24 20 LINE",
"24 -100 LINE"
);
},
{
closed = 1;
nodes = (
"165 525 OFFCURVE",
"186 555 OFFCURVE",
"226 555 CURVE",
"226 562 LINE",
"213 562 OFFCURVE",
"202 550 OFFCURVE",
"202 532 CURVE SMOOTH",
"202 513 OFFCURVE",
"213 500 OFFCURVE",
"231 500 CURVE SMOOTH",
"248 500 OFFCURVE",
"260 511 OFFCURVE",
"260 532 CURVE SMOOTH",
"260 553 OFFCURVE",
"247 568 OFFCURVE",
"221 568 CURVE SMOOTH",
"185 568 OFFCURVE",
"156 539 OFFCURVE",
"144 502 CURVE",
"155 498 LINE"
);
}
);
width = 250;
}
);
leftMetricsKey = "=a";
unicode = 0067;
},
{
glyphname = idotless;
lastChange = "2019-08-23 08:25:48 +0000";
layers = (
{
hints = (
{
origin = "{0, 0}";
scale = "{1, -1}";
type = Corner;
name = _corner.serif;
options = 1;
},
{
origin = "{0, 2}";
scale = "{1, -1}";
type = Corner;
name = _corner.serif;
options = 1;
},
{
origin = "{0, 3}";
scale = "{-1, -1}";
type = Corner;
name = _corner.serif;
}
);
layerId = "B8B720EE-CA8B-4072-B286-8C23F1A5F625";
paths = (
{
closed = 1;
nodes = (
"100 0 LINE",
"100 500 LINE",
"40 500 LINE",
"40 0 LINE"
);
}
);
width = 140;
}
);
leftMetricsKey = "=i";
rightMetricsKey = "=i";
unicode = 0131;
},
{
glyphname = jdotless;
lastChange = "2019-08-23 08:54:45 +0000";
layers = (
{
hints = (
{
origin = "{0, 2}";
scale = "{1, -1}";
type = Corner;
name = _corner.serif;
options = 1;
}
);
layerId = "B8B720EE-CA8B-4072-B286-8C23F1A5F625";
paths = (
{
closed = 1;
nodes = (
"110 -100 LINE",
"110 500 LINE",
"50 500 LINE",
"50 -100 LINE"
);
},
{
closed = 1;
nodes = (
"81 -248 OFFCURVE",
"110 -184 OFFCURVE",
"110 -110 CURVE SMOOTH",
"110 -80 LINE",
"50 -80 LINE",
"50 -120 LINE SMOOTH",
"50 -186 OFFCURVE",
"39 -230 OFFCURVE",
"-5 -230 CURVE SMOOTH",
"-41 -230 OFFCURVE",
"-80 -202 OFFCURVE",
"-80 -144 CURVE",
"-86 -144 LINE",
"-86 -159 OFFCURVE",
"-75 -179 OFFCURVE",
"-55 -179 CURVE SMOOTH",
"-38 -179 OFFCURVE",
"-24 -164 OFFCURVE",
"-24 -143 CURVE SMOOTH",
"-24 -121 OFFCURVE",
"-40 -104 OFFCURVE",
"-59 -104 CURVE SMOOTH",
"-78 -104 OFFCURVE",
"-96 -121 OFFCURVE",
"-96 -152 CURVE SMOOTH",
"-96 -195 OFFCURVE",
"-61 -248 OFFCURVE",
"6 -248 CURVE SMOOTH"
);
}
);
width = 140;
}
);
leftMetricsKey = "=j";
rightMetricsKey = "=j";
unicode = 0237;
},
{
glyphname = k;
lastChange = "2019-08-23 09:05:00 +0000";
layers = (
{
components = (
{
name = l;
}
);
hints = (
{
origin = "{0, 3}";
type = Corner;
name = _corner.serif;
},
{
origin = "{0, 0}";
scale = "{-1, 1}";
type = Corner;
name = _corner.serif;
options = 1;
}
);
layerId = "B8B720EE-CA8B-4072-B286-8C23F1A5F625";
paths = (
{
closed = 1;
nodes = (
"268 0 LINE",
"146 364 LINE",
"111 306 LINE",
"210 0 LINE"
);
},
{
closed = 1;
nodes = (
"228 484 LINE",
"262 484 LINE",
"262 500 LINE",
"180 500 LINE",
"180 484 LINE",
"206 484 LINE",
"77 269 LINE",
"77 234 LINE"
);
}
);
width = 256;
}
);
leftMetricsKey = "=h";
unicode = 006B;
},
{
glyphname = l;
lastChange = "2019-08-23 07:48:40 +0000";
layers = (
{
hints = (
{
origin = "{0, 0}";
scale = "{1, -1}";
type = Corner;
name = _corner.serif;
options = 1;
},
{
origin = "{0, 2}";
scale = "{1, -1}";
type = Corner;
name = _corner.serif;
options = 1;
},
{
origin = "{0, 3}";
scale = "{-1, -1}";
type = Corner;
name = _corner.serif;
}
);
layerId = "B8B720EE-CA8B-4072-B286-8C23F1A5F625";
paths = (
{
closed = 1;
nodes = (
"100 0 LINE",
"100 720 LINE",
"40 720 LINE",
"40 0 LINE"
);
}
);
width = 140;
}
);
leftMetricsKey = "=n";
rightMetricsKey = "=n";
unicode = 006C;
},
{
glyphname = m;
lastChange = "2019-08-23 07:04:09 +0000";
layers = (
{
background = {
paths = (
{
closed = 1;
nodes = (
"380 340 LINE",
"380 380 LINE SMOOTH",
"380 425 OFFCURVE",
"375 508 OFFCURVE",
"305 508 CURVE SMOOTH",
"255 508 OFFCURVE",
"233 466 OFFCURVE",
"220 416 CURVE",
"220 399 LINE",
"237 456 OFFCURVE",
"258 477 OFFCURVE",
"284 477 CURVE SMOOTH",
"320 477 OFFCURVE",
"320 437 OFFCURVE",
"320 390 CURVE SMOOTH",
"320 340 LINE"
);
}
);
};
components = (
{
name = n;
}
);
hints = (
{
origin = "{0, 3}";
type = Corner;
name = _corner.serif;
},
{
origin = "{0, 0}";
scale = "{-1, 1}";
type = Corner;
name = _corner.serif;
options = 1;
}
);
layerId = "B8B720EE-CA8B-4072-B286-8C23F1A5F625";
paths = (
{
closed = 1;
nodes = (
"380 0 LINE",
"380 360 LINE",
"320 360 LINE",
"320 0 LINE"
);
},
{
closed = 1;
nodes = (
"380 340 LINE",
"380 380 LINE SMOOTH",
"380 425 OFFCURVE",
"375 508 OFFCURVE",
"304 508 CURVE SMOOTH",
"267 508 OFFCURVE",
"239 486 OFFCURVE",
"220 458 CURVE",
"220 428 LINE",
"236 464 OFFCURVE",
"264 477 OFFCURVE",
"283 477 CURVE SMOOTH",
"320 477 OFFCURVE",
"320 437 OFFCURVE",
"320 390 CURVE SMOOTH",
"320 340 LINE"
);
}
);
width = 420;
}
);
leftMetricsKey = "=n";
rightMetricsKey = "=n";
unicode = 006D;
},
{
glyphname = o;
lastChange = "2019-08-23 08:00:27 +0000";
layers = (
{
components = (
{
name = _part.lowercase2;
transform = "{1, 0, 0, -1, 30, 160}";
},
{
name = _part.lowercase2;
transform = "{1, 0, 0, 1, 30, 340}";
}
);
layerId = "B8B720EE-CA8B-4072-B286-8C23F1A5F625";
paths = (
{
closed = 1;
nodes = (
"90 140 LINE",
"90 360 LINE",
"30 360 LINE",
"30 140 LINE"
);
},
{
closed = 1;
nodes = (
"230 140 LINE",
"230 360 LINE",
"170 360 LINE",
"170 140 LINE"
);
}
);
width = 260;
}
);
rightMetricsKey = "=|";
unicode = 006F;
},
{
glyphname = p;
lastChange = "2019-08-23 08:00:31 +0000";
layers = (
{
components = (
{
name = _part.mid;
transform = "{-1, 0, 0, 1, 240, 0}";
}
);
hints = (
{
origin = "{0, 2}";
scale = "{1, -1}";
type = Corner;
name = _corner.serif;
options = 1;
},
{
origin = "{0, 3}";
type = Corner;
name = _corner.serif;
},
{
origin = "{0, 0}";
scale = "{1, -1}";
type = Corner;
name = _corner.serif;
options = 1;
}
);
layerId = "B8B720EE-CA8B-4072-B286-8C23F1A5F625";
paths = (
{
closed = 1;
nodes = (
"100 -240 LINE",
"100 500 LINE",
"40 500 LINE",
"40 -240 LINE"
);
}
);
width = 270;
}
);
leftMetricsKey = "=l";
rightMetricsKey = "=o";
unicode = 0070;
},
{
glyphname = q;
lastChange = "2019-08-23 08:00:53 +0000";
layers = (
{
components = (
{
name = _part.mid;
transform = "{1, 0, 0, 1, 30, 0}";
}
);
hints = (
{
origin = "{0, 0}";
scale = "{1, -1}";
type = Corner;
name = _corner.serif;
options = 1;
},
{
origin = "{0, 1}";
type = Corner;
name = _corner.serif;
},
{
origin = "{0, 3}";
type = Corner;
name = _corner.serif;
}
);
layerId = "B8B720EE-CA8B-4072-B286-8C23F1A5F625";
paths = (
{
closed = 1;
nodes = (
"230 -240 LINE",
"230 500 LINE",
"170 500 LINE",
"170 -240 LINE"
);
}
);
width = 270;
}
);
leftMetricsKey = "=o";
rightMetricsKey = "=n";
unicode = 0071;
},
{
glyphname = r;
lastChange = "2019-08-23 09:37:39 +0000";
layers = (
{
hints = (
{
origin = "{0, 4}";
scale = "{1, -1}";
type = Corner;
name = _corner.serif;
options = 1;
},
{
origin = "{0, 5}";
scale = "{-1, -1}";
type = Corner;
name = _corner.serif;
}
);
layerId = "B8B720EE-CA8B-4072-B286-8C23F1A5F625";
paths = (
{
closed = 1;
nodes = (
"140 0 LINE",
"140 16 LINE",
"100 16 LINE",
"100 500 LINE",
"40 500 LINE",
"40 0 LINE"
);
},
{
closed = 1;
nodes = (
"202 408 OFFCURVE",
"216 419 OFFCURVE",
"216 451 CURVE SMOOTH",
"216 484 OFFCURVE",
"201 508 OFFCURVE",
"167 508 CURVE SMOOTH",
"128 508 OFFCURVE",
"102 475 OFFCURVE",
"80 440 CURVE",
"80 414 LINE",
"104 458 OFFCURVE",
"139 491 OFFCURVE",
"169 491 CURVE SMOOTH",
"189 491 OFFCURVE",
"203 477 OFFCURVE",
"194 444 CURVE",
"206 444 LINE",
"206 458 OFFCURVE",
"201 473 OFFCURVE",
"182 473 CURVE SMOOTH",
"166 473 OFFCURVE",
"152 461 OFFCURVE",
"152 441 CURVE SMOOTH",
"152 421 OFFCURVE",
"164 408 OFFCURVE",
"184 408 CURVE"
);
}
);
width = 200;
}
);
leftMetricsKey = "=n";
unicode = 0072;
},
{
glyphname = s;
lastChange = "2019-08-23 08:55:00 +0000";
layers = (
{
layerId = "B8B720EE-CA8B-4072-B286-8C23F1A5F625";
paths = (
{
closed = 1;
nodes = (
"230 70 LINE",
"230 114 LINE SMOOTH",
"230 239 OFFCURVE",
"90 293 OFFCURVE",
"90 413 CURVE SMOOTH",
"90 430 LINE",
"30 430 LINE",
"30 405 LINE SMOOTH",
"30 284 OFFCURVE",
"170 212 OFFCURVE",
"170 121 CURVE SMOOTH",
"170 70 LINE"
);
},
{
closed = 1;
nodes = (
"180 -8 OFFCURVE",
"230 7 OFFCURVE",
"230 60 CURVE SMOOTH",
"230 80 LINE",
"170 80 LINE",
"170 48 LINE SMOOTH",
"170 24 OFFCURVE",
"158 6 OFFCURVE",
"130 6 CURVE SMOOTH",
"102 6 OFFCURVE",
"90 24 OFFCURVE",
"90 48 CURVE SMOOTH",
"90 80 LINE",
"30 80 LINE",
"30 60 LINE SMOOTH",
"30 7 OFFCURVE",
"80 -8 OFFCURVE",
"130 -8 CURVE SMOOTH"
);
},
{
closed = 1;
nodes = (
"90 70 LINE",
"90 150 LINE",
"30 150 LINE",
"30 70 LINE"
);
},
{
closed = 1;
nodes = (
"90 420 LINE",
"90 452 LINE SMOOTH",
"90 476 OFFCURVE",
"102 494 OFFCURVE",
"130 494 CURVE SMOOTH",
"158 494 OFFCURVE",
"170 476 OFFCURVE",
"170 452 CURVE SMOOTH",
"170 420 LINE",
"230 420 LINE",
"230 440 LINE SMOOTH",
"230 493 OFFCURVE",
"180 508 OFFCURVE",
"130 508 CURVE SMOOTH",
"80 508 OFFCURVE",
"30 493 OFFCURVE",
"30 440 CURVE SMOOTH",
"30 420 LINE"
);
},
{
closed = 1;
nodes = (
"230 390 LINE",
"230 430 LINE",
"170 430 LINE",
"170 390 LINE"
);
}
);
width = 260;
}
);
leftMetricsKey = "=o";
rightMetricsKey = "=o";
unicode = 0073;
},
{
glyphname = t;
lastChange = "2019-08-23 08:18:06 +0000";
layers = (
{
layerId = "B8B720EE-CA8B-4072-B286-8C23F1A5F625";
paths = (
{
closed = 1;
nodes = (
"100 140 LINE",
"100 662 LINE",
"40 662 LINE",
"40 140 LINE"
);
},
{
closed = 1;
nodes = (
"202 -8 OFFCURVE",
"202 76 OFFCURVE",
"202 110 CURVE",
"186 110 LINE",
"186 47 OFFCURVE",
"168 12 OFFCURVE",
"142 12 CURVE SMOOTH",
"111 12 OFFCURVE",
"100 64 OFFCURVE",
"100 120 CURVE SMOOTH",
"100 160 LINE",
"40 160 LINE",
"40 130 LINE SMOOTH",
"40 87 OFFCURVE",
"47 -8 OFFCURVE",
"127 -8 CURVE SMOOTH"
);
},
{
closed = 1;
nodes = (
"190 484 LINE",
"190 500 LINE",
"-10 500 LINE",
"-10 484 LINE"
);
}
);
width = 172;
}
);
unicode = 0074;
},
{
glyphname = u;
lastChange = "2019-08-23 08:55:22 +0000";
layers = (
{
components = (
{
name = _part.lowercase1;
transform = "{-1, 0, 0, -1, 200, 160}";
}
);
hints = (
{
origin = "{0, 0}";
scale = "{1, -1}";
type = Corner;
name = _corner.serif;
options = 1;
},
{
origin = "{0, 2}";
scale = "{1, -1}";
type = Corner;
name = _corner.serif;
options = 1;
},
{
origin = "{0, 2}";
scale = "{-1, 1}";
type = Corner;
name = _corner.serif;
options = 1;
},
{
origin = "{1, 2}";
scale = "{1, -1}";
type = Corner;
name = _corner.serif;
options = 1;
}
);
layerId = "B8B720EE-CA8B-4072-B286-8C23F1A5F625";
paths = (
{
closed = 1;
nodes = (
"240 0 LINE",
"240 500 LINE",
"180 500 LINE",
"180 0 LINE"
);
},
{
closed = 1;
nodes = (
"100 140 LINE",
"100 500 LINE",
"40 500 LINE",
"40 140 LINE"
);
}
);
width = 280;
}
);
leftMetricsKey = l;
rightMetricsKey = "=n";
unicode = 0075;
},
{
glyphname = v;
lastChange = "2019-08-23 08:55:28 +0000";
layers = (
{
hints = (
{
origin = "{0, 1}";
type = Corner;
name = _corner.serif;
},
{
origin = "{0, 2}";
scale = "{-1, 1}";
type = Corner;
name = _corner.serif;
options = 1;
},
{
origin = "{0, 5}";
scale = "{-1, -1}";
type = Corner;
name = _corner.serif;
},
{
origin = "{0, 6}";
scale = "{1, -1}";
type = Corner;
name = _corner.serif;
options = 1;
}
);
layerId = "B8B720EE-CA8B-4072-B286-8C23F1A5F625";
paths = (
{
closed = 1;
nodes = (
"111 -8 LINE",
"207 500 LINE",
"186 500 LINE",
"114 112 LINE",
"133 112 LINE",
"57 500 LINE",
"1 500 LINE",
"101 -8 LINE"
);
}
);
width = 208;
}
);
rightMetricsKey = "=|";
unicode = 0076;
},
{
glyphname = x;
lastChange = "2019-08-23 08:32:29 +0000";
layers = (
{
hints = (
{
origin = "{0, 3}";
type = Corner;
name = _corner.serif;
},
{
origin = "{0, 4}";
scale = "{-1, 1}";
type = Corner;
name = _corner.serif;
options = 1;
},
{
origin = "{1, 1}";
scale = "{-1, -1}";
type = Corner;
name = _corner.serif;
},
{
origin = "{1, 2}";
scale = "{1, -1}";
type = Corner;
name = _corner.serif;
options = 1;
},
{
origin = "{0, 7}";
type = Corner;
name = _corner.serif;
},
{
origin = "{0, 0}";
scale = "{-1, 1}";
type = Corner;
name = _corner.serif;
options = 1;
},
{
origin = "{1, 3}";
scale = "{-1, -1}";
type = Corner;
name = _corner.serif;
},
{
origin = "{1, 0}";
scale = "{1, -1}";
type = Corner;
name = _corner.serif;
options = 1;
}
);
layerId = "B8B720EE-CA8B-4072-B286-8C23F1A5F625";
paths = (
{
closed = 1;
nodes = (
"26 0 LINE",
"106 240 LINE",
"115 240 LINE",
"202 500 LINE",
"179 500 LINE",
"104 272 LINE",
"94 272 LINE",
"4 0 LINE"
);
},
{
closed = 1;
nodes = (
"206 0 LINE",
"71 500 LINE",
"14 500 LINE",
"150 0 LINE"
);
}
);
width = 210;
}
);
rightMetricsKey = "=|";
unicode = 0078;
},
{
glyphname = y;
lastChange = "2019-08-23 09:34:15 +0000";
layers = (
{
hints = (
{
origin = "{1, 1}";
type = Corner;
name = _corner.serif;
},
{
origin = "{1, 2}";
scale = "{-1, 1}";
type = Corner;
name = _corner.serif;
options = 1;
}
);
layerId = "B8B720EE-CA8B-4072-B286-8C23F1A5F625";
paths = (
{
closed = 1;
nodes = (
"77 -248 OFFCURVE",
"89 -189 OFFCURVE",
"107 -85 CURVE SMOOTH",
"204 484 LINE",
"236 484 LINE",
"236 500 LINE",
"155 500 LINE",
"155 484 LINE",
"183 484 LINE",
"89 -85 LINE SMOOTH",
"73 -181 OFFCURVE",
"59 -231 OFFCURVE",
"16 -231 CURVE SMOOTH",
"-3 -231 OFFCURVE",
"-48 -222 OFFCURVE",
"-48 -165 CURVE",
"-54 -165 LINE",
"-54 -180 OFFCURVE",
"-43 -200 OFFCURVE",
"-23 -200 CURVE SMOOTH",
"-6 -200 OFFCURVE",
"8 -185 OFFCURVE",
"8 -164 CURVE SMOOTH",
"8 -142 OFFCURVE",
"-8 -125 OFFCURVE",
"-27 -125 CURVE SMOOTH",
"-46 -125 OFFCURVE",
"-64 -142 OFFCURVE",
"-64 -172 CURVE SMOOTH",
"-64 -210 OFFCURVE",
"-35 -248 OFFCURVE",
"15 -248 CURVE SMOOTH"
);
},
{
closed = 1;
nodes = (
"131 123 LINE",
"57 500 LINE",
"1 500 LINE",
"106 -16 LINE"
);
}
);
width = 208;
}
);
rightMetricsKey = "=v";
unicode = 0079;
},
{
glyphname = z;
lastChange = "2019-08-23 09:08:03 +0000";
layers = (
{
layerId = "B8B720EE-CA8B-4072-B286-8C23F1A5F625";
paths = (
{
closed = 1;
nodes = (
"174 0 LINE",
"174 16 LINE",
"48 16 LINE",
"164 486 LINE",
"164 500 LINE",
"4 500 LINE",
"4 484 LINE",
"110 484 LINE",
"-6 16 LINE",
"-6 0 LINE"
);
}
);
width = 168;
}
);
rightMetricsKey = "=|";
unicode = 007A;
},
{
glyphname = a.single;
lastChange = "2019-08-23 08:32:44 +0000";
layers = (
{
components = (
{
name = _part.mid;
transform = "{1, 0, 0, 1, 30, 0}";
}
);
hints = (
{
origin = "{0, 0}";
scale = "{1, -1}";
type = Corner;
name = _corner.serif;
options = 1;
}
);
layerId = "B8B720EE-CA8B-4072-B286-8C23F1A5F625";
paths = (
{
closed = 1;
nodes = (
"230 0 LINE",
"230 500 LINE",
"170 500 LINE",
"170 0 LINE"
);
}
);
width = 270;
}
);
leftMetricsKey = "=o";
rightMetricsKey = "=n";
},
{
glyphname = g.single;
lastChange = "2019-08-23 07:04:09 +0000";
layers = (
{
components = (
{
name = _part.mid;
transform = "{1, 0, 0, 1, 40, 0}";
},
{
name = _part.lowercase2;
transform = "{1, 0, 0, -1, 40, -80}";
}
);
hints = (
{
origin = "{0, 1}";
type = Corner;
name = _corner.serif;
}
);
layerId = "B8B720EE-CA8B-4072-B286-8C23F1A5F625";
paths = (
{
closed = 1;
nodes = (
"240 -100 LINE",
"240 500 LINE",
"180 500 LINE",
"180 -100 LINE"
);
}
);
width = 280;
}
);
},
{
glyphname = a.var;
lastChange = "2019-08-23 08:32:52 +0000";
layers = (
{
components = (
{
name = _part.mid;
piece = {
height = 60.03975;
};
transform = "{1, 0, 0, 1, 24, 0}";
}
);
hints = (
{
origin = "{0, 0}";
scale = "{1, -1}";
type = Corner;
name = _corner.serif;
options = 1;
}
);
layerId = "B8B720EE-CA8B-4072-B286-8C23F1A5F625";
paths = (
{
closed = 1;
nodes = (
"224 0 LINE",
"224 360 LINE",
"164 360 LINE",
"164 0 LINE"
);
},
{
closed = 1;
nodes = (
"224 340 LINE",
"224 380 LINE SMOOTH",
"224 413 OFFCURVE",
"224 508 OFFCURVE",
"128 508 CURVE SMOOTH",
"38 508 OFFCURVE",
"38 423 OFFCURVE",
"38 400 CURVE",
"98 400 LINE",
"98 439 OFFCURVE",
"98 492 OFFCURVE",
"131 492 CURVE SMOOTH",
"164 492 OFFCURVE",
"164 439 OFFCURVE",
"164 390 CURVE SMOOTH",
"164 340 LINE"
);
}
);
width = 264;
}
);
leftMetricsKey = "=a";
rightMetricsKey = "=a";
},
{
glyphname = f.var;
lastChange = "2019-08-23 08:34:31 +0000";
layers = (
{
background = {
hints = (
{
origin = "{0, 0}";
scale = "{-1, 1}";
type = Corner;
name = _corner.serif;
options = 1;
},
{
origin = "{0, 3}";
type = Corner;
name = _corner.serif;
}
);
paths = (
{
closed = 1;
nodes = (
"100 0 LINE",
"100 580 LINE",
"40 580 LINE",
"40 0 LINE"
);
},
{
closed = 1;
nodes = (
"-10 484 LINE",
"210 484 LINE",
"210 500 LINE",
"-10 500 LINE"
);
},
{
closed = 1;
nodes = (
"100 600 LINE SMOOTH",
"100 655 OFFCURVE",
"124 712 OFFCURVE",
"173 712 CURVE SMOOTH",
"210 712 OFFCURVE",
"240 679 OFFCURVE",
"240 640 CURVE",
"246 640 LINE",
"246 654 OFFCURVE",
"239 671 OFFCURVE",
"220 671 CURVE SMOOTH",
"203 671 OFFCURVE",
"192 659 OFFCURVE",
"192 639 CURVE SMOOTH",
"192 618 OFFCURVE",
"204 604 OFFCURVE",
"224 604 CURVE",
"242 604 OFFCURVE",
"256 616 OFFCURVE",
"256 643 CURVE SMOOTH",
"256 682 OFFCURVE",
"227 728 OFFCURVE",
"159 728 CURVE SMOOTH",
"64 728 OFFCURVE",
"40 635 OFFCURVE",
"40 590 CURVE SMOOTH",
"40 560 LINE",
"100 560 LINE"
);
}
);
};
hints = (
{
origin = "{0, 3}";
type = Corner;
name = _corner.serif;
},
{
origin = "{0, 0}";
scale = "{-1, 1}";
type = Corner;
name = _corner.serif;
options = 1;
}
);
layerId = "B8B720EE-CA8B-4072-B286-8C23F1A5F625";
paths = (
{
closed = 1;
nodes = (
"100 0 LINE",
"100 580 LINE",
"40 580 LINE",
"40 0 LINE"
);
},
{
closed = 1;
nodes = (
"-10 484 LINE",
"210 484 LINE",
"210 500 LINE",
"-10 500 LINE"
);
},
{
closed = 1;
nodes = (
"100 610 LINE SMOOTH",
"100 659 OFFCURVE",
"100 712 OFFCURVE",
"148 712 CURVE SMOOTH",
"196 712 OFFCURVE",
"196 659 OFFCURVE",
"196 610 CURVE",
"256 610 LINE",
"256 649 OFFCURVE",
"256 728 OFFCURVE",
"153 728 CURVE SMOOTH",
"40 728 OFFCURVE",
"40 633 OFFCURVE",
"40 600 CURVE SMOOTH",
"40 560 LINE",
"100 560 LINE"
);
}
);
width = 160;
}
);
leftMetricsKey = "=f";
rightMetricsKey = "=f";
},
{
glyphname = jdotless.var;
lastChange = "2019-08-23 08:35:00 +0000";
layers = (
{
hints = (
{
origin = "{0, 2}";
scale = "{1, -1}";
type = Corner;
name = _corner.serif;
options = 1;
}
);
layerId = "B8B720EE-CA8B-4072-B286-8C23F1A5F625";
paths = (
{
closed = 1;
nodes = (
"110 -100 LINE",
"110 500 LINE",
"50 500 LINE",
"50 -100 LINE"
);
},
{
closed = 1;
nodes = (
"110 -248 OFFCURVE",
"110 -153 OFFCURVE",
"110 -120 CURVE SMOOTH",
"110 -80 LINE",
"50 -80 LINE",
"50 -130 LINE SMOOTH",
"50 -179 OFFCURVE",
"50 -232 OFFCURVE",
"7 -232 CURVE SMOOTH",
"-36 -232 OFFCURVE",
"-36 -179 OFFCURVE",
"-36 -120 CURVE SMOOTH",
"-36 -100 LINE",
"-96 -100 LINE",
"-96 -120 LINE SMOOTH",
"-96 -173 OFFCURVE",
"-96 -248 OFFCURVE",
"4 -248 CURVE SMOOTH"
);
}
);
width = 140;
}
);
leftMetricsKey = "=j";
rightMetricsKey = "=j";
},
{
glyphname = r.var;
lastChange = "2019-08-23 08:36:20 +0000";
layers = (
{
background = {
paths = (
{
closed = 1;
nodes = (
"230 486 OFFCURVE",
"204 508 OFFCURVE",
"170 508 CURVE SMOOTH",
"130 508 OFFCURVE",
"104 474 OFFCURVE",
"80 440 CURVE",
"80 414 LINE",
"107 455 OFFCURVE",
"141 491 OFFCURVE",
"172 491 CURVE SMOOTH",
"196 491 OFFCURVE",
"210 472 OFFCURVE",
"210 444 CURVE",
"220 444 LINE",
"220 458 OFFCURVE",
"217 473 OFFCURVE",
"194 473 CURVE SMOOTH",
"178 473 OFFCURVE",
"166 464 OFFCURVE",
"166 444 CURVE SMOOTH",
"166 424 OFFCURVE",
"178 408 OFFCURVE",
"198 408 CURVE",
"216 408 OFFCURVE",
"230 420 OFFCURVE",
"230 444 CURVE SMOOTH"
);
}
);
};
components = (
{
name = idotless;
}
);
layerId = "B8B720EE-CA8B-4072-B286-8C23F1A5F625";
paths = (
{
closed = 1;
nodes = (
"100 444 OFFCURVE",
"127 477 OFFCURVE",
"157 477 CURVE SMOOTH",
"185 477 OFFCURVE",
"185 448 OFFCURVE",
"185 414 CURVE",
"245 414 LINE",
"245 451 OFFCURVE",
"240 508 OFFCURVE",
"177 508 CURVE SMOOTH",
"122 508 OFFCURVE",
"98 463 OFFCURVE",
"83 428 CURVE",
"83 405 LINE"
);
}
);
width = 229;
}
);
leftMetricsKey = "=r";
rightMetricsKey = "=r";
},
{
glyphname = y.var;
lastChange = "2019-08-23 08:37:15 +0000";
layers = (
{
components = (
{
name = _part.lowercase2;
transform = "{1, 0, 0, -1, 40, -80}";
},
{
name = _part.lowercase1;
transform = "{-1, 0, 0, -1, 200, 160}";
}
);
hints = (
{
origin = "{1, 3}";
scale = "{1, -1}";
type = Corner;
name = _corner.serif;
options = 1;
},
{
origin = "{0, 2}";
scale = "{1, -1}";
type = Corner;
name = _corner.serif;
options = 1;
},
{
origin = "{0, 1}";
type = Corner;
name = _corner.serif;
}
);
layerId = "B8B720EE-CA8B-4072-B286-8C23F1A5F625";
paths = (
{
closed = 1;
nodes = (
"240 -100 LINE",
"240 500 LINE",
"180 500 LINE",
"180 -100 LINE"
);
},
{
closed = 1;
nodes = (
"40 140 LINE",
"100 140 LINE",
"100 500 LINE",
"40 500 LINE"
);
}
);
width = 280;
}
);
leftMetricsKey = "=u";
rightMetricsKey = "=u";
},
{
export = 0;
glyphname = c.temp;
lastChange = "2019-08-23 07:25:27 +0000";
layers = (
{
layerId = "B8B720EE-CA8B-4072-B286-8C23F1A5F625";
paths = (
{
closed = 1;
nodes = (
"100 340 LINE",
"100 390 LINE SMOOTH",
"100 439 OFFCURVE",
"109 492 OFFCURVE",
"157 492 CURVE SMOOTH",
"201 492 OFFCURVE",
"223 449 OFFCURVE",
"218 404 CURVE",
"224 404 LINE",
"224 420 OFFCURVE",
"212 432 OFFCURVE",
"197 432 CURVE SMOOTH",
"181 432 OFFCURVE",
"170 419 OFFCURVE",
"170 402 CURVE SMOOTH",
"170 383 OFFCURVE",
"183 370 OFFCURVE",
"203 370 CURVE SMOOTH",
"222 370 OFFCURVE",
"236 381 OFFCURVE",
"236 417 CURVE SMOOTH",
"236 467 OFFCURVE",
"209 508 OFFCURVE",
"144 508 CURVE SMOOTH",
"46 508 OFFCURVE",
"40 413 OFFCURVE",
"40 380 CURVE SMOOTH",
"40 340 LINE"
);
},
{
closed = 1;
nodes = (
"240 -8 OFFCURVE",
"240 63 OFFCURVE",
"240 120 CURVE SMOOTH",
"240 160 LINE",
"224 160 LINE",
"224 110 LINE SMOOTH",
"224 33 OFFCURVE",
"196 10 OFFCURVE",
"161 10 CURVE SMOOTH",
"111 10 OFFCURVE",
"100 59 OFFCURVE",
"100 110 CURVE SMOOTH",
"100 160 LINE",
"40 160 LINE",
"40 120 LINE SMOOTH",
"40 41 OFFCURVE",
"72 -8 OFFCURVE",
"149 -8 CURVE SMOOTH"
);
},
{
closed = 1;
nodes = (
"100 140 LINE",
"100 360 LINE",
"40 360 LINE",
"40 140 LINE"
);
}
);
width = 280;
}
);
},
{
glyphname = "a-hira";
lastChange = "2019-08-23 06:16:57 +0000";
layers = (
{
background = {
components = (
{
alignment = -1;
name = V;
transform = "{1, 0, 0, 1, 99, 0}";
},
{
name = V;
transform = "{1, 0, 0, 1, 291, 0}";
}
);
};
layerId = "B8B720EE-CA8B-4072-B286-8C23F1A5F625";
paths = (
{
closed = 1;
nodes = (
"432 0 LINE",
"483 87 OFFCURVE",
"504 145 OFFCURVE",
"504 240 CURVE SMOOTH",
"504 390 OFFCURVE",
"470 466 OFFCURVE",
"282 466 CURVE",
"110 466 OFFCURVE",
"64 382 OFFCURVE",
"64 240 CURVE",
"64 101 OFFCURVE",
"118 0 OFFCURVE",
"211 -1 CURVE",
"319 0 OFFCURVE",
"368 87 OFFCURVE",
"368 261 CURVE",
"331 303 LINE",
"331 201 OFFCURVE",
"300 10 OFFCURVE",
"208 10 CURVE",
"150 10 OFFCURVE",
"143 144 OFFCURVE",
"143 228 CURVE",
"143 327 OFFCURVE",
"155 445 OFFCURVE",
"281 445 CURVE",
"418 445 OFFCURVE",
"438 338 OFFCURVE",
"438 253 CURVE",
"438 159 OFFCURVE",
"435 116 OFFCURVE",
"394 43 CURVE"
);
},
{
closed = 1;
nodes = (
"307 114 OFFCURVE",
"257 201 OFFCURVE",
"257 350 CURVE",
"257 430 LINE",
"257 561 OFFCURVE",
"262 623 OFFCURVE",
"280 700 CURVE",
"218 700 LINE",
"200 635 OFFCURVE",
"195 573 OFFCURVE",
"195 475 CURVE",
"195 364 LINE",
"195 199 OFFCURVE",
"264 65 OFFCURVE",
"320 -11 CURVE",
"371 19 LINE"
);
},
{
closed = 1;
nodes = (
"475 560 LINE",
"475 576 LINE",
"70 576 LINE",
"70 560 LINE"
);
}
);
width = 1000;
}
);
unicode = 3042;
},
{
glyphname = one;
lastChange = "2019-08-22 19:09:28 +0000";
layers = (
{
layerId = "B8B720EE-CA8B-4072-B286-8C23F1A5F625";
paths = (
{
closed = 1;
nodes = (
"162 0 LINE",
"162 16 LINE",
"102 16 LINE",
"102 710 LINE",
"-24 682 LINE",
"-24 665 LINE",
"40 679 LINE",
"40 16 LINE",
"-20 16 LINE",
"-20 0 LINE"
);
}
);
width = 142;
}
);
unicode = 0031;
},
{
glyphname = two;
lastChange = "2019-08-22 19:15:22 +0000";
layers = (
{
components = (
{
name = _part.uppercase2;
transform = "{1, 0, 0, 1, 40, 580}";
}
);
layerId = "B8B720EE-CA8B-4072-B286-8C23F1A5F625";
paths = (
{
closed = 1;
nodes = (
"248 0 LINE",
"248 16 LINE",
"102 16 LINE",
"102 83 LINE SMOOTH",
"102 270 OFFCURVE",
"248 338 OFFCURVE",
"248 525 CURVE SMOOTH",
"248 605 LINE",
"186 605 LINE",
"186 538 LINE SMOOTH",
"186 363 OFFCURVE",
"40 295 OFFCURVE",
"40 120 CURVE SMOOTH",
"40 0 LINE"
);
},
{
closed = 1;
nodes = (
"40 492 LINE",
"102 492 LINE",
"102 605 LINE",
"40 605 LINE"
);
}
);
width = 248;
}
);
unicode = 0032;
},
{
glyphname = three;
lastChange = "2019-08-22 19:19:06 +0000";
layers = (
{
components = (
{
name = _part.uppercase2;
transform = "{1, 0, 0, 1, 40, 580}";
},
{
name = _part.uppercase2;
transform = "{1, 0, 0, -1, 40, 120}";
},
{
name = _part.uppercase1;
transform = "{1, 0, 0, -1, 80, 518}";
},
{
name = _part.uppercase1;
transform = "{1, 0, 0, 1, 80, 278}";
}
);
layerId = "B8B720EE-CA8B-4072-B286-8C23F1A5F625";
paths = (
{
closed = 1;
nodes = (
"186 492 LINE",
"248 492 LINE",
"248 605 LINE",
"186 605 LINE"
);
},
{
closed = 1;
nodes = (
"186 100 LINE",
"248 100 LINE",
"248 304 LINE",
"186 304 LINE"
);
},
{
closed = 1;
nodes = (
"40 100 LINE",
"102 100 LINE",
"102 204 LINE",
"40 204 LINE"
);
}
);
width = 288;
}
);
unicode = 0033;
},
{
glyphname = seven;
lastChange = "2019-08-22 19:24:46 +0000";
layers = (
{
background = {
components = (
{
name = O;
}
);
};
hints = (
{
origin = "{0, 5}";
type = Corner;
name = _corner.serif;
},
{
origin = "{0, 0}";
scale = "{-1, 1}";
type = Corner;
name = _corner.serif;
options = 1;
}
);
layerId = "B8B720EE-CA8B-4072-B286-8C23F1A5F625";
paths = (
{
closed = 1;
nodes = (
"128 0 LINE",
"250 700 LINE",
"30 700 LINE",
"30 684 LINE",
"187 684 LINE",
"70 0 LINE"
);
}
);
width = 280;
}
);
unicode = 0037;
},
{
glyphname = period;
lastChange = "2019-08-22 15:25:01 +0000";
layers = (
{
layerId = "B8B720EE-CA8B-4072-B286-8C23F1A5F625";
paths = (
{
closed = 1;
nodes = (
"105 -8 OFFCURVE",
"126 13 OFFCURVE",
"126 40 CURVE SMOOTH",
"126 67 OFFCURVE",
"105 88 OFFCURVE",
"78 88 CURVE SMOOTH",
"51 88 OFFCURVE",
"30 67 OFFCURVE",
"30 40 CURVE SMOOTH",
"30 13 OFFCURVE",
"51 -8 OFFCURVE",
"78 -8 CURVE SMOOTH"
);
}
);
width = 156;
}
);
rightMetricsKey = "=|";
unicode = 002E;
},
{
glyphname = comma;
lastChange = "2019-08-22 15:25:25 +0000";
layers = (
{
background = {
paths = (
{
closed = 1;
nodes = (
"105 -8 OFFCURVE",
"126 13 OFFCURVE",
"126 40 CURVE SMOOTH",
"126 67 OFFCURVE",
"105 88 OFFCURVE",
"78 88 CURVE SMOOTH",
"51 88 OFFCURVE",
"30 67 OFFCURVE",
"30 40 CURVE SMOOTH",
"30 13 OFFCURVE",
"51 -8 OFFCURVE",
"78 -8 CURVE SMOOTH"
);
}
);
};
layerId = "B8B720EE-CA8B-4072-B286-8C23F1A5F625";
paths = (
{
closed = 1;
nodes = (
"107 30 LINE",
"107 -36 OFFCURVE",
"69 -60 OFFCURVE",
"35 -60 CURVE",
"35 -74 LINE",
"112 -74 OFFCURVE",
"126 -6 OFFCURVE",
"126 27 CURVE SMOOTH",
"126 68 OFFCURVE",
"105 88 OFFCURVE",
"78 88 CURVE SMOOTH",
"51 88 OFFCURVE",
"30 67 OFFCURVE",
"30 40 CURVE SMOOTH",
"30 13 OFFCURVE",
"51 -8 OFFCURVE",
"78 -8 CURVE SMOOTH",
"104 -8 OFFCURVE",
"113 12 OFFCURVE",
"113 30 CURVE"
);
}
);
width = 156;
}
);
leftMetricsKey = "=period";
rightMetricsKey = "=period";
unicode = 002C;
},
{
glyphname = dotaccentcomb;
lastChange = "2019-08-23 03:02:55 +0000";
layers = (
{
layerId = "B8B720EE-CA8B-4072-B286-8C23F1A5F625";
paths = (
{
closed = 1;
nodes = (
"70 595 OFFCURVE",
"90 615 OFFCURVE",
"90 640 CURVE SMOOTH",
"90 665 OFFCURVE",
"70 685 OFFCURVE",
"45 685 CURVE SMOOTH",
"20 685 OFFCURVE",
"0 665 OFFCURVE",
"0 640 CURVE SMOOTH",
"0 615 OFFCURVE",
"20 595 OFFCURVE",
"45 595 CURVE"
);
}
);
width = 90;
}
);
unicode = 0307;
},
{
export = 0;
glyphname = _corner.serif;
lastChange = "2019-08-22 18:12:54 +0000";
layers = (
{
anchors = (
{
name = left;
position = "{0, 7}";
},
{
name = origin;
position = "{0, 0}";
},
{
name = right;
position = "{10, 0}";
}
);
layerId = "B8B720EE-CA8B-4072-B286-8C23F1A5F625";
paths = (
{
closed = 0;
nodes = (
"0 16 LINE",
"-30 16 LINE",
"-30 0 LINE",
"15 0 LINE"
);
}
);
width = 25;
}
);
},
{
export = 0;
glyphname = _part.lowercase1;
lastChange = "2019-08-22 18:57:46 +0000";
layers = (
{
layerId = "B8B720EE-CA8B-4072-B286-8C23F1A5F625";
paths = (
{
closed = 1;
nodes = (
"160 0 LINE",
"160 40 LINE SMOOTH",
"160 85 OFFCURVE",
"155 168 OFFCURVE",
"85 168 CURVE SMOOTH",
"35 168 OFFCURVE",
"13 126 OFFCURVE",
"0 76 CURVE",
"0 59 LINE",
"17 116 OFFCURVE",
"38 137 OFFCURVE",
"64 137 CURVE SMOOTH",
"100 137 OFFCURVE",
"100 97 OFFCURVE",
"100 50 CURVE SMOOTH",
"100 0 LINE"
);
}
);
width = 160;
}
);
},
{
export = 0;
glyphname = _part.lowercase2;
lastChange = "2019-08-22 18:58:14 +0000";
layers = (
{
layerId = "B8B720EE-CA8B-4072-B286-8C23F1A5F625";
paths = (
{
closed = 1;
nodes = (
"60 0 LINE",
"60 50 LINE SMOOTH",
"60 89 OFFCURVE",
"60 152 OFFCURVE",
"100 152 CURVE SMOOTH",
"140 152 OFFCURVE",
"140 89 OFFCURVE",
"140 50 CURVE SMOOTH",
"140 0 LINE",
"200 0 LINE",
"200 40 LINE SMOOTH",
"200 73 OFFCURVE",
"200 168 OFFCURVE",
"100 168 CURVE SMOOTH",
"0 168 OFFCURVE",
"0 73 OFFCURVE",
"0 40 CURVE SMOOTH",
"0 0 LINE"
);
}
);
width = 200;
}
);
},
{
export = 0;
glyphname = _part.lowercase3;
lastChange = "2019-08-23 05:52:32 +0000";
layers = (
{
layerId = "B8B720EE-CA8B-4072-B286-8C23F1A5F625";
paths = (
{
closed = 1;
nodes = (
"0 120 LINE SMOOTH",
"0 87 OFFCURVE",
"0 -8 OFFCURVE",
"96 -8 CURVE SMOOTH",
"180 -8 OFFCURVE",
"180 65 OFFCURVE",
"180 100 CURVE",
"164 100 LINE",
"164 33 OFFCURVE",
"138 10 OFFCURVE",
"106 10 CURVE SMOOTH",
"60 10 OFFCURVE",
"60 71 OFFCURVE",
"60 110 CURVE SMOOTH",
"60 160 LINE",
"0 160 LINE"
);
}
);
width = 180;
}
);
},
{
export = 0;
glyphname = _part.mid;
lastChange = "2019-08-22 18:39:02 +0000";
layers = (
{
anchors = (
{
name = height;
position = "{80, 500}";
}
);
components = (
{
name = _part.lowercase1;
transform = "{-1, 0, 0, 1, 160, 340}";
},
{
name = _part.lowercase1;
transform = "{-1, 0, 0, -1, 160, 160}";
}
);
layerId = "B8B720EE-CA8B-4072-B286-8C23F1A5F625";
paths = (
{
closed = 1;
nodes = (
"60 140 LINE",
"60 360 LINE",
"0 360 LINE",
"0 140 LINE"
);
}
);
userData = {
PartSelection = {
height = 2;
};
};
width = 160;
},
{
anchors = (
{
name = height;
position = "{80, 320}";
}
);
associatedMasterId = "B8B720EE-CA8B-4072-B286-8C23F1A5F625";
components = (
{
name = _part.lowercase1;
transform = "{-1, 0, 0, 1, 160, 160}";
},
{
name = _part.lowercase1;
transform = "{-1, 0, 0, -1, 160, 160}";
}
);
layerId = "98FA0C9B-963D-4E92-AD2B-AAEB357B0E02";
name = short;
paths = (
{
closed = 1;
nodes = (
"60 130 LINE",
"60 190 LINE",
"0 190 LINE",
"0 130 LINE"
);
}
);
userData = {
PartSelection = {
height = 1;
};
};
visible = 1;
width = 160;
}
);
partsSettings = (
{
name = height;
bottomName = Low;
bottomValue = 60;
topName = High;
topValue = 100;
}
);
},
{
export = 0;
glyphname = _part.top;
lastChange = "2019-08-22 18:27:25 +0000";
layers = (
{
components = (
{
name = _part.lowercase1;
transform = "{1, 0, 0, 1, 0, 340}";
}
);
hints = (
{
origin = "{0, 3}";
type = Corner;
name = _corner.serif;
},
{
origin = "{0, 0}";
scale = "{-1, 1}";
type = Corner;
name = _corner.serif;
options = 1;
}
);
layerId = "B8B720EE-CA8B-4072-B286-8C23F1A5F625";
paths = (
{
closed = 1;
nodes = (
"160 0 LINE",
"160 360 LINE",
"100 360 LINE",
"100 0 LINE"
);
}
);
width = 160;
}
);
},
{
export = 0;
glyphname = _part.uppercase1;
lastChange = "2019-08-22 18:58:02 +0000";
layers = (
{
layerId = "B8B720EE-CA8B-4072-B286-8C23F1A5F625";
paths = (
{
closed = 1;
nodes = (
"168 0 LINE",
"168 34 LINE SMOOTH",
"168 69 OFFCURVE",
"168 128 OFFCURVE",
"65 128 CURVE SMOOTH",
"0 128 LINE",
"0 112 LINE",
"58 112 LINE SMOOTH",
"106 112 OFFCURVE",
"106 73 OFFCURVE",
"106 40 CURVE SMOOTH",
"106 0 LINE"
);
}
);
width = 168;
}
);
},
{
export = 0;
glyphname = _part.uppercase2;
lastChange = "2019-08-22 18:58:22 +0000";
layers = (
{
layerId = "B8B720EE-CA8B-4072-B286-8C23F1A5F625";
paths = (
{
closed = 1;
nodes = (
"62 0 LINE",
"62 29 LINE SMOOTH",
"62 66 OFFCURVE",
"62 112 OFFCURVE",
"104 112 CURVE SMOOTH",
"146 112 OFFCURVE",
"146 66 OFFCURVE",
"146 29 CURVE SMOOTH",
"146 0 LINE",
"208 0 LINE",
"208 20 LINE SMOOTH",
"208 65 OFFCURVE",
"208 128 OFFCURVE",
"104 128 CURVE SMOOTH",
"0 128 OFFCURVE",
"0 65 OFFCURVE",
"0 20 CURVE SMOOTH",
"0 0 LINE"
);
}
